<?xml version="1.0" standalone="no"?><!DOCTYPE svg PUBLIC "-//W3C//DTD SVG 1.1//EN" "http://www.w3.org/Graphics/SVG/1.1/DTD/svg11.dtd"><svg t="1646903478991" class="icon" viewBox="0 0 1024 1024" version="1.1" xmlns="http://www.w3.org/2000/svg" p-id="5124" xmlns:xlink="http://www.w3.org/1999/xlink" width="32" height="32"><defs><style type="text/css"></style></defs><path d="M512 0C229.218308 0 0 229.218308 0 512S229.218308 1024 512 1024 1024 794.781692 1024 512 794.781692 0 512 0zM512 944.00025C273.406004 944.00025 79.99975 750.593996 79.99975 512 79.99975 273.406004 273.406004 79.99975 512 79.99975c238.593996 0 432.00025 193.406253 432.00025 432.00025C944.00025 750.593996 750.593996 944.00025 512 944.00025z" p-id="5125"></path><path d="M267.437661 473.313559c-18.751376 17.312187-13.93678 54.687189 10.749006 83.562791 24.687782 28.843665 59.875057 38.187415 78.594495 20.813349 18.719439-17.252304 13.906838-54.687189-10.780943-83.500912C321.312437 465.375064 286.125162 455.999376 267.437661 473.313559z" p-id="5126"></path><path d="M677.343064 487.561731c-21.969092 31.189084-23.342409 68.905419-3.093957 84.281388 20.218511 15.312094 54.407735 2.622877 76.344889-28.594152 21.937154-31.125209 23.312468-68.811602 3.093957-84.217513C733.467446 443.687423 699.250277 456.46846 677.343064 487.561731z" p-id="5127"></path><path d="M452.374456 480.311891c32.969606-7.938495 50.124101-57.188304 38.283228-109.999158-11.751049-52.81285-48.062129-89.187805-81.031735-81.251306-32.937669 8.000374-50.062222 57.250183-38.31317 110.063033C383.155649 451.875431 419.436788 488.250386 452.374456 480.311891z" p-id="5128"></path><path d="M617.90715 289.061427c-32.937669-7.938495-69.218807 28.438456-81.031735 81.251306-11.812928 52.81285 5.311626 102.062659 38.311173 109.999158 32.905731 7.936499 69.218807-28.438456 81.031735-81.187431C668.063189 346.313606 650.844819 297.061801 617.90715 289.061427z" p-id="5129"></path><path d="M512 525.000608c-78.594495 0-137.595259 125.155556-137.595259 166.562682 0 101.81115 59.000764-3.219712 137.595259-3.219712 78.626433 0 137.595259 105.030862 137.595259 3.219712C649.595259 650.156164 590.626433 525.000608 512 525.000608z" p-id="5130"></path></svg>